<svg aria-hidden="true" focusable="false" data-prefix="fas" data-icon="plus" role="img" xmlns="http://www.w3.org/2000/svg" width="448" height="512" style=""><rect id="backgroundrect" width="100%" height="100%" x="0" y="0" fill="none" stroke="none"/><g class="currentLayer" style=""><title>Layer 1</title><path fill="#ffffff" d="M414.18181824684143,178.00000190734863 H270.18181824684143 V34.00000190734863 c0,-17.670000076293945 -14.329999923706055,-32 -32,-32 h-32 c-17.670000076293945,0 -32,14.329999923706055 -32,32 v144 H30.18181824684143 c-17.670000076293945,0 -32,14.329999923706055 -32,32 v32 c0,17.670000076293945 14.329999923706055,32 32,32 h144 v144 c0,17.670000076293945 14.329999923706055,32 32,32 h32 c17.670000076293945,0 32,-14.329999923706055 32,-32 V274.00000190734863 h144 c17.670000076293945,0 32,-14.329999923706055 32,-32 v-32 c0,-17.670000076293945 -14.329999923706055,-32 -32,-32 z" id="svg_1" class="selected" opacity="1" fill-opacity="1"/></g></svg>